<svg width="14" height="14" viewBox="0 0 14 14" fill="none" xmlns="http://www.w3.org/2000/svg">
<path d="M5.30621 7.17675L5.48299 6.99997L5.30621 6.82319L0.564189 2.0812C0.14527 1.66228 0.14527 0.983097 0.564189 0.564179C0.983094 0.145274 1.66229 0.145274 2.08119 0.564179L6.8232 5.3062L6.99998 5.48298L7.17675 5.3062L11.9189 0.564207L11.9189 0.564198C12.3377 0.145309 13.0168 0.14527 13.4358 0.564201C13.8547 0.983107 13.8547 1.66231 13.4358 2.08122L8.69375 6.82319L8.51697 6.99997L8.69375 7.17675L13.4359 11.9188C13.8547 12.3377 13.8547 13.017 13.4359 13.4358C13.017 13.8547 12.3377 13.8547 11.9189 13.4358L7.17676 8.69374L6.99998 8.51696L6.8232 8.69374L2.0812 13.4358C1.66229 13.8547 0.98309 13.8547 0.564184 13.4358L0.387669 13.6124L0.564182 13.4358C0.145273 13.017 0.145273 12.3377 0.564182 11.9189L0.56419 11.9188L5.30621 7.17675Z" fill="#9AA1A6" stroke="white" stroke-width="0.5"/>
</svg>
