<svg width="20" height="20" viewBox="0 0 20 20" fill="none" xmlns="http://www.w3.org/2000/svg">
<path d="M19.1534 0.84501C18.8036 0.491922 18.3677 0.236351 17.8887 0.103614C17.4097 -0.0291218 16.9044 -0.0344167 16.4228 0.0882539L2.97651 3.45059C2.12212 3.66378 1.36417 4.15793 0.824385 4.85367C0.284596 5.54941 -0.00571116 6.40637 8.51419e-05 7.28694C0.00588144 8.1675 0.307445 9.02057 0.856346 9.70914C1.40525 10.3977 2.16963 10.8818 3.02675 11.0838L7.79083 12.2045L8.91468 16.9717C9.10658 17.8336 9.58755 18.604 10.2777 19.1548C10.9679 19.7056 11.8257 20.0038 12.7087 19.9997H12.7374C13.6155 20.0098 14.4708 19.7209 15.1629 19.1805C15.855 18.6401 16.3427 17.8803 16.5458 17.026L19.9102 3.57466C20.0328 3.09318 20.0274 2.58802 19.8947 2.10923C19.762 1.63044 19.5064 1.19465 19.1534 0.84501ZM18.4172 3.20346L15.0559 16.6477C14.9312 17.1703 14.6318 17.6348 14.2072 17.9641C13.7826 18.2934 13.2583 18.4678 12.721 18.4585C12.1821 18.4652 11.6575 18.2849 11.2365 17.9484C10.8155 17.6119 10.5241 17.1399 10.4118 16.6128L9.28383 11.8036L13.6193 7.46611C13.7551 7.32032 13.8291 7.1275 13.8256 6.92826C13.8221 6.72902 13.7413 6.53892 13.6004 6.39802C13.4595 6.25711 13.2694 6.1764 13.0702 6.17288C12.871 6.16937 12.6781 6.24332 12.5323 6.37917L8.19177 10.7167L3.38257 9.58872C2.86091 9.46617 2.39559 9.17181 2.06138 8.75295C1.72717 8.33408 1.54347 7.81502 1.5398 7.27917C1.53614 6.74332 1.71271 6.2218 2.04116 5.79839C2.3696 5.37499 2.83085 5.07429 3.35078 4.94462L16.796 1.58126C16.9036 1.55407 17.0142 1.54029 17.1252 1.54024C17.3283 1.5402 17.5287 1.58657 17.7112 1.67582C17.8936 1.76507 18.0533 1.89482 18.1779 2.05519C18.3026 2.21555 18.3889 2.40228 18.4304 2.60111C18.4719 2.79994 18.4673 3.00664 18.4172 3.20346Z" fill="#635EF8"/>
</svg>
