<svg width="22" height="20" viewBox="0 0 22 20" fill="none" xmlns="http://www.w3.org/2000/svg">
<path fill-rule="evenodd" clip-rule="evenodd" d="M13.3084 0.153738C14.5819 0.594082 15.4529 2.01527 15.1699 3.3834L14.6536 6.74936C14.6339 6.8967 14.6764 6.97795 14.7139 7.02132C14.7575 7.07161 14.8288 7.11013 14.9224 7.11013H19.0882C20.0675 7.11013 20.9498 7.4972 21.4907 8.22985C22.0389 8.97247 22.1478 9.95061 21.8021 10.9327C21.6768 11.2886 21.5522 11.7239 21.4066 12.241C21.3958 12.2796 21.3849 12.3186 21.3737 12.358C21.239 12.8374 21.0885 13.3724 20.9123 13.9311C20.5308 15.1404 20.0175 16.4981 19.2279 17.7723C18.5078 18.9348 17.5612 20 15.8805 20H5.44589L5.44531 18.4087H15.8805C16.7357 18.4087 17.2736 17.9453 17.9069 16.9231C18.5963 15.8103 19.0618 14.5954 19.425 13.4442C19.5933 12.9108 19.7372 12.399 19.8729 11.9164C19.8836 11.8783 19.8944 11.8403 19.905 11.8024C20.0478 11.2951 20.1862 10.8088 20.3317 10.3956C20.5275 9.83933 20.4282 9.43831 20.2421 9.18635C20.0488 8.92441 19.6709 8.70152 19.0882 8.70152H14.9224C13.8358 8.70152 12.9344 7.75579 13.1077 6.5202L13.1092 6.50989L13.6337 3.09002L13.6391 3.06528C13.7544 2.53693 13.3861 1.85752 12.8008 1.65876L12.787 1.6541L12.7735 1.64894C12.5621 1.56818 12.2843 1.57004 11.9999 1.66964C11.7102 1.77109 11.5012 1.94328 11.4065 2.08791L11.4048 2.0904L7.13495 8.5618L5.83843 7.67412L10.1067 1.2052L10.1076 1.20385C10.4296 0.712637 10.9491 0.354862 11.4921 0.16474C12.0368 -0.0259975 12.6906 -0.0778433 13.3084 0.153738Z" fill="#9AA1A6"/>
<path fill-rule="evenodd" clip-rule="evenodd" d="M0 8.59543C0 7.57004 0.815981 6.73883 1.82252 6.73883H5.46757C6.47413 6.73883 7.2901 7.57004 7.2901 8.59543V20H1.82252C0.815981 20 0 19.1688 0 18.1434V8.59543ZM1.82252 8.33021C1.67873 8.33021 1.56216 8.44892 1.56216 8.59543V18.1434C1.56216 18.2898 1.67873 18.4087 1.82252 18.4087H5.72793V8.59543C5.72793 8.44892 5.61137 8.33021 5.46757 8.33021H1.82252Z" fill="#9AA1A6"/>
</svg>
