<svg width="43" height="30" viewBox="0 0 43 30" fill="none" xmlns="http://www.w3.org/2000/svg">
<circle cx="15" cy="15" r="15" fill="white"/>
<path d="M22.9176 12.6562H19.1847C19.1165 12.1733 18.9773 11.7443 18.767 11.3693C18.5568 10.9886 18.2869 10.6648 17.9574 10.3977C17.6278 10.1307 17.2472 9.92614 16.8153 9.78409C16.3892 9.64205 15.9261 9.57102 15.4261 9.57102C14.5227 9.57102 13.7358 9.79545 13.0653 10.2443C12.3949 10.6875 11.875 11.3352 11.5057 12.1875C11.1364 13.0341 10.9517 14.0625 10.9517 15.2727C10.9517 16.517 11.1364 17.5625 11.5057 18.4091C11.8807 19.2557 12.4034 19.8949 13.0739 20.3267C13.7443 20.7585 14.5199 20.9744 15.4006 20.9744C15.8949 20.9744 16.3523 20.9091 16.7727 20.7784C17.1989 20.6477 17.5767 20.4574 17.9062 20.2074C18.2358 19.9517 18.5085 19.642 18.7244 19.2784C18.946 18.9148 19.0994 18.5 19.1847 18.0341L22.9176 18.0511C22.821 18.8523 22.5795 19.625 22.1932 20.3693C21.8125 21.108 21.2983 21.7699 20.6506 22.3551C20.0085 22.9347 19.2415 23.3949 18.3494 23.7358C17.4631 24.071 16.4602 24.2386 15.3409 24.2386C13.7841 24.2386 12.392 23.8864 11.1648 23.1818C9.94318 22.4773 8.97727 21.4574 8.26705 20.1222C7.5625 18.7869 7.21023 17.1705 7.21023 15.2727C7.21023 13.3693 7.56818 11.75 8.28409 10.4148C9 9.07955 9.97159 8.0625 11.1989 7.36364C12.4261 6.65909 13.8068 6.30682 15.3409 6.30682C16.3523 6.30682 17.2898 6.44886 18.1534 6.73295C19.0227 7.01705 19.7926 7.43182 20.4631 7.97727C21.1335 8.51704 21.679 9.17898 22.0994 9.96307C22.5256 10.7472 22.7983 11.6449 22.9176 12.6562Z" fill="#635EF8"/>
<path d="M38.861 19.0166C39.416 19.1539 39.9386 19.3733 40.415 19.6608C40.6129 19.7802 40.7181 20.0082 40.6805 20.2363C40.6164 20.6254 40.7131 20.9231 40.8951 21.105C41.0769 21.2869 41.3746 21.3837 41.7638 21.3195C41.9919 21.2819 42.2198 21.3871 42.3392 21.585C42.6268 22.0614 42.8461 22.584 42.9834 23.139C43.039 23.3635 42.9521 23.5991 42.7642 23.7338C42.4435 23.9637 42.3013 24.2427 42.3013 24.5C42.3013 24.7573 42.4435 25.0363 42.7642 25.2662C42.9521 25.4008 43.039 25.6365 42.9834 25.861C42.8461 26.4161 42.6267 26.9386 42.3392 27.4151C42.2198 27.6129 41.9918 27.7181 41.7638 27.6805C41.3746 27.6164 41.0769 27.7132 40.8951 27.895C40.7132 28.0769 40.6164 28.3746 40.6805 28.7637C40.7181 28.9918 40.6129 29.2197 40.415 29.3392C39.9386 29.6267 39.416 29.8461 38.8609 29.9834C38.6365 30.039 38.4009 29.9521 38.2661 29.7642C38.0363 29.4434 37.7573 29.3013 37.5 29.3013C37.2427 29.3013 36.9637 29.4434 36.7338 29.7642C36.5991 29.9521 36.3635 30.039 36.139 29.9834C35.584 29.8461 35.0614 29.6267 34.585 29.3392C34.3871 29.2197 34.2819 28.9918 34.3195 28.7637C34.3836 28.3746 34.2868 28.0769 34.105 27.895C33.9231 27.7132 33.6254 27.6164 33.2363 27.6805C33.0082 27.7181 32.7802 27.6129 32.6608 27.4151C32.3733 26.9386 32.1539 26.4161 32.0166 25.861C31.961 25.6365 32.0479 25.4008 32.2358 25.2662C32.5566 25.0363 32.6987 24.7573 32.6987 24.5C32.6987 24.2427 32.5566 23.9637 32.2358 23.7338C32.0479 23.5991 31.961 23.3635 32.0166 23.139C32.1539 22.584 32.3733 22.0614 32.6608 21.585C32.7802 21.3871 33.0082 21.2819 33.2362 21.3195C33.6254 21.3837 33.9231 21.2869 34.105 21.105C34.2869 20.9231 34.3836 20.6254 34.3195 20.2363C34.2819 20.0082 34.3871 19.7802 34.585 19.6608C35.0614 19.3733 35.5839 19.1539 36.139 19.0166C36.3635 18.961 36.5991 19.0479 36.7338 19.2358C36.9637 19.5566 37.2427 19.6987 37.5 19.6987C37.7573 19.6987 38.0363 19.5566 38.2661 19.2358C38.4009 19.0479 38.6365 18.961 38.861 19.0166ZM37.5 21.6756C35.9402 21.6756 34.6758 22.9401 34.6758 24.4999C34.6758 26.0597 35.9402 27.3242 37.5 27.3242C39.0599 27.3242 40.3243 26.0597 40.3243 24.4999C40.3243 22.9401 39.0599 21.6756 37.5 21.6756ZM37.5 22.8054C38.4359 22.8054 39.1946 23.564 39.1946 24.4999C39.1946 25.4359 38.4359 26.1945 37.5 26.1945C36.5642 26.1945 35.8055 25.4359 35.8055 24.4999C35.8055 23.564 36.5642 22.8054 37.5 22.8054Z" fill="white"/>
</svg>
