<svg width="14" height="14" viewBox="0 0 14 14" fill="none" xmlns="http://www.w3.org/2000/svg">
<path d="M13.2937 4.78853H8.99184L7.66281 0.499258C7.61702 0.353982 7.52864 0.227527 7.41023 0.13789C7.29181 0.0482523 7.14941 0 7.00329 0C6.85717 0 6.71477 0.0482523 6.59636 0.13789C6.47795 0.227527 6.38956 0.353982 6.34377 0.499258L4.99475 4.78853H0.692885C0.546688 4.78888 0.404326 4.83753 0.28608 4.92754C0.167835 5.01755 0.0797364 5.14433 0.0343359 5.28982C-0.0110645 5.43531 -0.0114514 5.59209 0.0332304 5.73783C0.0779123 5.88356 0.165384 6.01082 0.283184 6.10146L3.78064 8.75349L2.44161 13.048C2.40772 13.157 2.39896 13.273 2.41603 13.3862C2.4331 13.4995 2.47553 13.607 2.53984 13.6998C2.60416 13.7926 2.68854 13.8682 2.78608 13.9204C2.88363 13.9726 2.99159 13.9999 3.10113 14C3.24372 13.9935 3.3812 13.9425 3.49584 13.8535L6.9933 11.2015L10.4908 13.8535C10.6088 13.9427 10.75 13.9919 10.8955 13.9948C11.005 13.9946 11.113 13.9673 11.2105 13.9152C11.3081 13.863 11.3924 13.7874 11.4567 13.6946C11.5211 13.6017 11.5635 13.4943 11.5806 13.381C11.5976 13.2677 11.5889 13.1518 11.555 13.0428L10.2259 8.74826L13.7234 6.09623C13.8405 6.00386 13.9267 5.87503 13.9696 5.72823C14.0125 5.58142 14.0099 5.42417 13.9622 5.27899C13.9145 5.13382 13.8242 5.00818 13.7041 4.92007C13.584 4.83197 13.4403 4.78592 13.2937 4.78853ZM9.62638 7.92702L9.04181 8.37687L9.26165 9.09872L10.3059 12.4517L7.58287 10.3594L6.9933 9.9095L6.40373 10.3594L3.68071 12.4517L4.72495 9.09872L4.94479 8.37687L4.36021 7.92702L1.6372 5.83469H5.72922L5.95405 5.11284L6.9933 1.76512L8.03254 5.11284L8.25738 5.83469H12.3494L9.62638 7.92702Z" fill="#3833CC"/>
</svg>
