<svg width="14" height="14" viewBox="0 0 14 14" fill="none" xmlns="http://www.w3.org/2000/svg">
<path d="M0 3.07015C0 2.73104 0.268629 2.45613 0.600001 2.45613L2.67219 2.4558C3.0839 2.44512 3.44713 2.17721 3.58722 1.78087C3.59091 1.77045 3.59514 1.75759 3.61033 1.71095L3.69962 1.43678C3.75426 1.26868 3.80186 1.12222 3.86847 0.991311C4.13163 0.474149 4.61851 0.115024 5.18114 0.02308C5.32355 -0.000194739 5.47439 -9.66874e-05 5.64752 1.53116e-05H8.35263C8.52577 -9.66874e-05 8.67658 -0.000194739 8.81899 0.02308C9.38163 0.115024 9.86852 0.474149 10.1316 0.991311C10.1983 1.12222 10.2459 1.26868 10.3005 1.43678L10.3898 1.71095C10.405 1.75759 10.4092 1.77045 10.4129 1.78087C10.553 2.17721 10.9883 2.44545 11.4 2.45613H13.4C13.7314 2.45613 14 2.73104 14 3.07015C14 3.40927 13.7314 3.68418 13.4 3.68418H0.600001C0.268629 3.68418 0 3.40927 0 3.07015Z" fill="#9AA1A6"/>
<path fill-rule="evenodd" clip-rule="evenodd" d="M6.6846 14H7.31366C9.47799 14 10.5602 14 11.2638 13.3799C11.9674 12.7597 12.0394 11.7425 12.1833 9.70797L12.3908 6.77647C12.4689 5.67258 12.508 5.12066 12.1549 4.7709C11.802 4.42114 11.2059 4.42114 10.0138 4.42114H3.9845C2.79234 4.42114 2.19626 4.42114 1.84328 4.7709C1.4903 5.12066 1.52936 5.67258 1.60748 6.77647L1.81492 9.70797C1.9589 11.7425 2.03088 12.7597 2.73449 13.3799C3.4381 14 4.52027 14 6.6846 14ZM5.63514 7.13199C5.6031 6.82834 5.31721 6.60672 4.99664 6.6371C4.67607 6.66748 4.4422 6.93831 4.47425 7.24196L4.86314 10.9262C4.8952 11.2298 5.18105 11.4514 5.5016 11.4211C5.8222 11.3907 6.05608 11.1199 6.02403 10.8162L5.63514 7.13199ZM9.0016 6.6371C9.3222 6.66748 9.55608 6.93831 9.52403 7.24196L9.13514 10.9262C9.1031 11.2298 8.81719 11.4514 8.49666 11.4211C8.17606 11.3907 7.94219 11.1199 7.97423 10.8162L8.36312 7.13199C8.39517 6.82834 8.68108 6.60672 9.0016 6.6371Z" fill="#9AA1A6"/>
</svg>
