<svg width="20" height="4" viewBox="0 0 20 4" fill="none" xmlns="http://www.w3.org/2000/svg">
<path d="M4.26297 2C4.26297 0.889984 3.31919 0 2.1209 0C0.943782 0 0 0.889984 0 2C0 3.11002 0.943782 4 2.1209 4C3.31919 4 4.26297 3.11002 4.26297 2ZM12.1103 2C12.1103 0.889984 11.1771 0 10 0C8.82288 0 7.88974 0.889984 7.88974 2C7.88974 3.11002 8.82288 4 10 4C11.1771 4 12.1103 3.11002 12.1103 2ZM20 2C20 0.889984 19.0456 0 17.8791 0C16.6809 0 15.737 0.889984 15.737 2C15.737 3.11002 16.6809 4 17.8791 4C19.0456 4 20 3.11002 20 2Z" fill="#9AA1A6"/>
</svg>
