<svg width="14" height="14" viewBox="0 0 14 14" fill="none" xmlns="http://www.w3.org/2000/svg">
<mask id="mask0_70_219" style="mask-type:luminance" maskUnits="userSpaceOnUse" x="0" y="0" width="14" height="14">
<path d="M14 0H0V14H14V0Z" fill="white"/>
</mask>
<g mask="url(#mask0_70_219)">
<path fill-rule="evenodd" clip-rule="evenodd" d="M13.8292 0.170854C14.057 0.39866 14.057 0.768005 13.8292 0.995814L11.0769 3.74803C11.072 3.75316 11.067 3.75818 11.0618 3.76309L3.74997 11.075C3.74503 11.0801 3.74001 11.0851 3.73493 11.09L0.995811 13.8291C0.768007 14.0569 0.39866 14.0569 0.170854 13.8291C-0.0569514 13.6013 -0.0569514 13.232 0.170854 13.0042L2.47003 10.705C1.70124 9.99868 1.1327 9.20821 0.742702 8.56327C0.506127 8.17203 0.331975 7.82892 0.21619 7.58164C0.158232 7.45792 0.11471 7.35776 0.085144 7.28712C0.0703559 7.25182 0.0590433 7.22388 0.051147 7.20399L0.0418522 7.18031L0.039109 7.17319L0.0382108 7.1708L0.0378798 7.16992C0.0378798 7.16992 0.0376272 7.16928 0.583382 6.96331L0.0432822 6.74293L0.0435175 6.74234L0.0441283 6.74083L0.0459118 6.73651L0.0517311 6.72262C0.0566132 6.71102 0.0635058 6.69486 0.0724227 6.67444C0.0902523 6.63367 0.1162 6.57574 0.150375 6.50323C0.218684 6.35822 0.320126 6.15417 0.455641 5.91062C0.725955 5.42489 1.13562 4.77539 1.69344 4.12329C2.8038 2.82524 4.55549 1.45833 7.00003 1.45833C8.43071 1.45833 9.62812 1.92823 10.5962 2.57881L13.0042 0.170854C13.232 -0.0569514 13.6013 -0.0569514 13.8292 0.170854ZM5.642 7.53305L7.53302 5.64199C7.36799 5.57717 7.18827 5.54167 7.00003 5.54167C6.19456 5.54167 5.54167 6.19459 5.54167 7C5.54167 7.18824 5.57717 7.36797 5.642 7.53305ZM8.39746 4.7776C7.99286 4.52277 7.51342 4.375 7.00003 4.375C5.55025 4.375 4.375 5.55025 4.375 7C4.375 7.51339 4.52277 7.99283 4.7776 8.39743L3.29585 9.87922C2.61558 9.26293 2.10101 8.55488 1.74103 7.95958C1.52918 7.60923 1.37409 7.30327 1.27274 7.08686C1.253 7.04468 1.23532 7.00601 1.21969 6.97107C1.2781 6.84857 1.36305 6.67922 1.47508 6.47792C1.71831 6.04088 2.0853 5.45997 2.57999 4.88166C3.57463 3.71891 5.03127 2.625 7.00003 2.625C8.06723 2.625 8.98038 2.94495 9.75248 3.42253L8.39746 4.7776Z" fill="#9AA1A6"/>
<path d="M0.0434653 6.74292L-0.0429688 6.95525L0.0378104 7.16928L0.583565 6.9633C0.0432767 6.74339 0.0434653 6.74292 0.0434653 6.74292Z" fill="#9AA1A6"/>
<path d="M12.0212 4.66477C12.2823 4.47608 12.647 4.53479 12.8357 4.79591C13.2114 5.31597 13.4893 5.79711 13.6739 6.14948C13.7663 6.32594 13.8357 6.47096 13.8827 6.57345C13.9063 6.62473 13.9242 6.66539 13.9366 6.69414C13.9428 6.70855 13.9477 6.71993 13.9511 6.72821L13.9553 6.73819L13.9566 6.74139L13.9571 6.7425L13.9573 6.7432L13.4171 6.96329L13.9627 7.16974L13.9624 7.17032L13.9618 7.17189L13.9602 7.17633L13.9546 7.1905C13.95 7.20234 13.9435 7.21879 13.935 7.23956C13.918 7.28115 13.8934 7.34007 13.8608 7.41386C13.7955 7.56133 13.6983 7.76882 13.5675 8.01639C13.3064 8.51018 12.9077 9.17051 12.3567 9.83364C11.2579 11.1558 9.50471 12.5417 7.0004 12.5417C6.49133 12.5417 6.01055 12.4841 5.55814 12.38C5.24418 12.3077 5.04822 11.9947 5.12045 11.6807C5.19268 11.3668 5.50575 11.1708 5.81971 11.243C6.18706 11.3275 6.58011 11.375 7.0004 11.375C9.02755 11.375 10.4827 10.2633 11.4594 9.08797C11.9461 8.5023 12.3019 7.91389 12.536 7.47114C12.644 7.26692 12.7252 7.09519 12.7808 6.97105C12.7444 6.89469 12.6976 6.80008 12.6404 6.69076C12.4759 6.37675 12.2266 5.94503 11.89 5.47923C11.7013 5.21811 11.7601 4.85346 12.0212 4.66477Z" fill="#9AA1A6"/>
<path d="M13.9616 7.1697C13.9616 7.1697 13.9618 7.16923 13.416 6.96326C13.9563 6.74334 13.9562 6.74316 13.9562 6.74316L14.0426 6.95521L13.9616 7.1697Z" fill="#9AA1A6"/>
</g>
</svg>
