<svg width="14" height="14" viewBox="0 0 14 14" fill="none" xmlns="http://www.w3.org/2000/svg">
<path d="M5.77585 9.33319L1.33968 13.7701C1.26681 13.843 1.1803 13.9008 1.08508 13.9403C0.989871 13.9797 0.887823 14 0.784766 14C0.681709 14 0.579661 13.9797 0.484449 13.9403C0.389237 13.9008 0.302725 13.843 0.229853 13.7701C0.15698 13.6973 0.099175 13.6108 0.0597368 13.5156C0.0202986 13.4203 0 13.3183 0 13.2152C0 13.1122 0.0202986 13.0101 0.0597368 12.9149C0.099175 12.8197 0.15698 12.7332 0.229853 12.6603L4.66681 8.22415L1.33968 4.89545C1.96515 4.26944 2.73282 3.80408 3.57716 3.53912C4.42149 3.27415 5.31741 3.21745 6.18841 3.37385L9.10376 0.459282C9.39793 0.165204 9.79685 0 10.2128 0C10.6288 0 11.0277 0.165204 11.3218 0.459282L13.5407 2.67737C13.6865 2.82304 13.8021 2.996 13.8809 3.18636C13.9598 3.37672 14.0004 3.58075 14.0004 3.7868C14.0004 3.99286 13.9598 4.19689 13.8809 4.38725C13.8021 4.57761 13.6865 4.75057 13.5407 4.89624L10.6261 7.81081C10.7826 8.68199 10.7258 9.5781 10.4607 10.4226C10.1956 11.2671 9.73004 12.0348 9.10376 12.6603L5.77585 9.33319Z" fill="#9AA1A6"/>
</svg>
