<svg width="32" height="32" viewBox="0 0 32 32" fill="none" xmlns="http://www.w3.org/2000/svg">
<path d="M1.45703 15.9986H21.8207M21.8207 15.9986L16.7298 11.635M21.8207 15.9986L16.7298 20.3623" stroke="#647179" stroke-width="2" stroke-linecap="round" stroke-linejoin="round"/>
<path d="M11.6367 8.72732C11.6543 5.56364 11.7946 3.85031 12.9123 2.73267C14.1904 1.45459 16.2474 1.45459 20.3614 1.45459H21.816C25.93 1.45459 27.9872 1.45459 29.2652 2.73267C30.5433 4.01075 30.5433 6.06778 30.5433 10.1819V21.8182C30.5433 25.9323 30.5433 27.9893 29.2652 29.2674C27.9872 30.5455 25.93 30.5455 21.816 30.5455H20.3614C16.2474 30.5455 14.1904 30.5455 12.9123 29.2674C11.7946 28.1497 11.6543 26.4364 11.6367 23.2728" stroke="#647179" stroke-width="2" stroke-linecap="round"/>
</svg>
