<svg width="20" height="16" viewBox="0 0 20 16" fill="none" xmlns="http://www.w3.org/2000/svg">
<path fill-rule="evenodd" clip-rule="evenodd" d="M10.0001 4.57129C8.07351 4.57129 6.51172 6.10631 6.51172 7.99986C6.51172 9.89344 8.07351 11.4284 10.0001 11.4284C11.9267 11.4284 13.4885 9.89344 13.4885 7.99986C13.4885 6.10631 11.9267 4.57129 10.0001 4.57129ZM7.90707 7.99986C7.90707 6.86377 8.84418 5.94272 10.0001 5.94272C11.156 5.94272 12.0931 6.86377 12.0931 7.99986C12.0931 9.13595 11.156 10.057 10.0001 10.057C8.84418 10.057 7.90707 9.13595 7.90707 7.99986Z" fill="#647179"/>
<path fill-rule="evenodd" clip-rule="evenodd" d="M10 0C5.80081 0 2.97236 2.47241 1.33076 4.56856L1.30115 4.60635C0.929898 5.08026 0.587963 5.51673 0.355991 6.03282C0.107572 6.58551 0 7.18784 0 8C0 8.81216 0.107572 9.41449 0.355991 9.96718C0.587963 10.4833 0.929898 10.9198 1.30116 11.3936L1.33076 11.4314C2.97236 13.5276 5.80081 16 10 16C14.1992 16 17.0276 13.5276 18.6692 11.4314L18.6988 11.3936C19.0701 10.9198 19.412 10.4833 19.644 9.96718C19.8925 9.41449 20 8.81216 20 8C20 7.18784 19.8925 6.58551 19.644 6.03282C19.412 5.51672 19.0701 5.08025 18.6988 4.60634L18.6692 4.56856C17.0276 2.47241 14.1992 0 10 0ZM2.43648 5.40507C3.95222 3.46964 6.41894 1.37143 10 1.37143C13.581 1.37143 16.0478 3.46964 17.5635 5.40507C17.9715 5.92603 18.2105 6.23735 18.3676 6.58697C18.5146 6.91383 18.6047 7.31328 18.6047 8C18.6047 8.68672 18.5146 9.08617 18.3676 9.41303C18.2105 9.76265 17.9715 10.074 17.5635 10.5949C16.0478 12.5304 13.581 14.6286 10 14.6286C6.41894 14.6286 3.95222 12.5304 2.43648 10.5949C2.0285 10.074 1.78953 9.76265 1.63233 9.41303C1.48543 9.08617 1.39535 8.68672 1.39535 8C1.39535 7.31328 1.48543 6.91383 1.63233 6.58697C1.78953 6.23735 2.02849 5.92603 2.43648 5.40507Z" fill="#647179"/>
</svg>
