<svg width="32" height="32" viewBox="0 0 32 32" fill="none" xmlns="http://www.w3.org/2000/svg">
<path d="M16 0C11.0987 0 7.11111 3.77768 7.11111 8.42105C7.11111 13.0644 11.0987 16.8421 16 16.8421C20.9013 16.8421 24.8889 13.0644 24.8889 8.42105C24.8889 3.77768 20.9013 0 16 0ZM16 13.4737C13.0596 13.4737 10.6667 11.2067 10.6667 8.42105C10.6667 5.63537 13.0596 3.36842 16 3.36842C18.9404 3.36842 21.3333 5.63537 21.3333 8.42105C21.3333 11.2067 18.9404 13.4737 16 13.4737ZM32 32V30.3158C32 23.8164 26.416 18.5263 19.5556 18.5263H12.4444C5.58222 18.5263 0 23.8164 0 30.3158V32H3.55556V30.3158C3.55556 25.6724 7.54311 21.8947 12.4444 21.8947H19.5556C24.4569 21.8947 28.4444 25.6724 28.4444 30.3158V32H32Z" fill="#647179"/>
</svg>
