<svg width="20" height="10" viewBox="0 0 20 10" fill="none" xmlns="http://www.w3.org/2000/svg">
<path fill-rule="evenodd" clip-rule="evenodd" d="M0.550931 0.0705272C1.01241 -0.118642 1.54684 0.0858315 1.74462 0.527238L0.909036 0.869768C1.74462 0.527238 1.74475 0.527525 1.74462 0.527238L1.74415 0.526194C1.74389 0.525629 1.74408 0.526038 1.74415 0.526194L1.74771 0.533898C1.75135 0.541742 1.75761 0.555063 1.76652 0.573497C1.78433 0.610383 1.81268 0.667669 1.85176 0.742441C1.93 0.892107 2.05083 1.11102 2.21577 1.37607C2.54667 1.90781 3.04941 2.61602 3.73428 3.32149C3.8957 3.48773 4.06654 3.65329 4.24698 3.81581C4.25453 3.82242 4.26198 3.82911 4.26935 3.83589C5.61905 5.04482 7.50199 6.08705 9.9999 6.08705C11.0989 6.08705 12.0711 5.88636 12.928 5.56376C14.0425 5.14412 14.9767 4.5124 15.7413 3.82598C16.6046 3.05091 17.2386 2.2176 17.6573 1.57496C17.8658 1.2549 18.0186 0.985574 18.1179 0.799413C18.1674 0.706424 18.2035 0.634487 18.2263 0.587697C18.2377 0.564306 18.2458 0.547229 18.2505 0.536968L18.2551 0.527238C18.453 0.0860749 18.9874 -0.118599 19.4488 0.0705272C19.9102 0.259705 20.1241 0.770893 19.9262 1.2123L19.0907 0.869768C19.9262 1.2123 19.9263 1.2121 19.9262 1.2123L19.9242 1.21666L19.9211 1.22381L19.9106 1.24629C19.902 1.26483 19.8898 1.29043 19.8742 1.32255C19.8429 1.38677 19.7974 1.47718 19.7375 1.58952C19.6179 1.814 19.4398 2.12719 19.2003 2.49466C18.8343 3.05652 18.3198 3.75337 17.6449 4.45605L18.3699 5.14943C18.7249 5.48898 18.7249 6.03958 18.3699 6.37913C18.0148 6.71869 17.4393 6.71869 17.0842 6.37913L16.3205 5.64854C15.8075 6.04488 15.2335 6.41861 14.596 6.74113L15.3072 7.78666C15.581 8.18918 15.4619 8.72777 15.041 8.98976C14.6202 9.25167 14.0571 9.13767 13.7833 8.73516L12.8874 7.41815C12.2701 7.59919 11.6108 7.72745 10.909 7.78753V9.13046C10.909 9.61071 10.5019 10 9.9999 10C9.49781 10 9.09081 9.61071 9.09081 9.13046V7.78771C8.38655 7.72754 7.72732 7.59902 7.11205 7.4185L6.21643 8.73516C5.9426 9.13767 5.37947 9.25167 4.95865 8.98976C4.53782 8.72777 4.41864 8.18918 4.69247 7.78666L5.40373 6.74104C4.76727 6.41887 4.19309 6.04506 3.67947 5.64837L2.91548 6.37913C2.56046 6.71869 1.98486 6.71869 1.62985 6.37913C1.27482 6.03958 1.27482 5.48898 1.62985 5.14943L2.35478 4.45605C1.58661 3.65625 1.02519 2.86296 0.653439 2.26558C0.463268 1.95999 0.321315 1.70338 0.225544 1.52018C0.177626 1.42851 0.141172 1.35503 0.115926 1.30275C0.103299 1.27661 0.0934722 1.25575 0.0864086 1.24055L0.0778723 1.22205L0.0751542 1.21606L0.0741814 1.2139L0.0737905 1.21303C0.0736178 1.21265 0.0734634 1.2123 0.909036 0.869768L0.0737905 1.21303C-0.123986 0.771623 0.089454 0.259705 0.550931 0.0705272Z" fill="#647179"/>
</svg>
