<svg width="16" height="16" viewBox="0 0 16 16" fill="none" xmlns="http://www.w3.org/2000/svg">
<path d="M1 3.80018V12.2002C1 13.1803 1 13.6701 1.19074 14.0444C1.35851 14.3737 1.62604 14.6417 1.95533 14.8094C2.3293 15 2.81912 15 3.7973 15H12.2027C13.1809 15 13.67 15 14.044 14.8094C14.3732 14.6417 14.6417 14.3737 14.8094 14.0444C15 13.6704 15 13.1813 15 12.2032V3.7973C15 2.81912 15 2.3293 14.8094 1.95533C14.6417 1.62604 14.3732 1.35851 14.044 1.19074C13.6697 1 13.1803 1 12.2002 1H3.80018C2.82008 1 2.32967 1 1.95533 1.19074C1.62604 1.35851 1.35851 1.62604 1.19074 1.95533C1 2.32967 1 2.82008 1 3.80018Z" stroke="#635EF8" stroke-width="1.5" stroke-linecap="round" stroke-linejoin="round"/>
</svg>
