<svg width="16" height="16" viewBox="0 0 16 16" fill="none" xmlns="http://www.w3.org/2000/svg">
<path d="M1 3.80018V12.2002C1 13.1803 1 13.6701 1.19074 14.0444C1.35851 14.3737 1.62604 14.6417 1.95533 14.8094C2.3293 15 2.81912 15 3.7973 15H12.2027C13.1809 15 13.67 15 14.044 14.8094C14.3732 14.6417 14.6417 14.3737 14.8094 14.0444C15 13.6704 15 13.1813 15 12.2032V3.7973C15 2.81912 15 2.3293 14.8094 1.95533C14.6417 1.62604 14.3732 1.35851 14.044 1.19074C13.6697 1 13.1803 1 12.2002 1H3.80018C2.82008 1 2.32967 1 1.95533 1.19074C1.62604 1.35851 1.35851 1.62604 1.19074 1.95533C1 2.32967 1 2.82008 1 3.80018Z" stroke="#635EF8" stroke-width="1.5" stroke-linecap="round" stroke-linejoin="round"/>
<rect x="1" y="1" width="14" height="14" fill="#635EF8"/>
<path d="M12.0405 4.18805C12.13 4.08431 12.2591 4.0179 12.3999 4.00312C12.5408 3.98835 12.6822 4.02639 12.7936 4.10905C12.9051 4.19171 12.9776 4.31237 12.9956 4.44502C13.0136 4.57767 12.9757 4.71169 12.89 4.81819L7.14975 11.708C7.07543 11.7971 6.98102 11.8696 6.87335 11.9201C6.76568 11.9706 6.64746 11.9978 6.52724 11.9999C6.40703 12.0019 6.28784 11.9787 6.17831 11.9319C6.06878 11.8851 5.97165 11.816 5.89396 11.7294L3.13599 8.65411C3.08823 8.60328 3.05173 8.54396 3.02861 8.47963C3.0055 8.4153 2.99624 8.34726 3.00138 8.27951C3.00652 8.21176 3.02596 8.14566 3.05856 8.0851C3.09116 8.02453 3.13625 7.97073 3.1912 7.92684C3.24614 7.88295 3.30983 7.84986 3.37851 7.82951C3.4472 7.80917 3.51951 7.80198 3.59118 7.80837C3.66285 7.81476 3.73245 7.83459 3.79588 7.86672C3.85932 7.89884 3.91531 7.94259 3.96057 7.99542L6.50457 10.8321L12.0405 4.18805Z" fill="white" stroke="white"/>
</svg>
