<svg width="16" height="16" viewBox="0 0 16 16" fill="none" xmlns="http://www.w3.org/2000/svg">
<path fill-rule="evenodd" clip-rule="evenodd" d="M2.70264 9.12526e-07C2.7124 9.12526e-07 2.72218 9.12526e-07 2.732 9.12526e-07H4.49737C4.81387 -1.50875e-05 5.09869 -3.113e-05 5.33554 0.0196329C5.58926 0.0407049 5.85869 0.0884169 6.12195 0.225177C6.4872 0.414929 6.78504 0.712769 6.9748 1.07806C7.1116 1.34132 7.15928 1.61074 7.1804 1.86447C7.2 2.10131 7.2 2.38612 7.2 2.70263V4.49738C7.2 4.81388 7.2 5.0987 7.1804 5.33554C7.15928 5.58926 7.1116 5.85869 6.9748 6.12195C6.78504 6.4872 6.4872 6.78504 6.12195 6.9748C5.85869 7.1116 5.58926 7.15928 5.33554 7.1804C5.0987 7.2 4.81388 7.2 4.49738 7.2H2.70263C2.38612 7.2 2.10131 7.2 1.86447 7.1804C1.61074 7.15928 1.34132 7.1116 1.07806 6.9748C0.712769 6.78504 0.414929 6.4872 0.225177 6.12195C0.0884169 5.85869 0.0407049 5.58926 0.0196329 5.33554C-3.113e-05 5.09869 -1.50875e-05 4.81387 9.12526e-07 4.49737V2.732C9.12526e-07 2.72218 9.12526e-07 2.7124 9.12526e-07 2.70264C-1.50875e-05 2.38613 -3.113e-05 2.10131 0.0196329 1.86447C0.0407049 1.61074 0.0884169 1.34132 0.225177 1.07806C0.414929 0.712769 0.712769 0.414929 1.07806 0.225177C1.34132 0.0884169 1.61074 0.0407049 1.86447 0.0196329C2.10131 -3.113e-05 2.38613 -1.50875e-05 2.70264 9.12526e-07ZM1.82202 1.64238C1.81781 1.6439 1.81562 1.64504 1.81562 1.64504C1.74255 1.68298 1.68298 1.74255 1.64504 1.81562C1.64504 1.81562 1.6439 1.81781 1.64238 1.82202C1.64078 1.82639 1.63814 1.8345 1.63498 1.84769C1.62833 1.87542 1.62043 1.92116 1.61415 1.99689C1.60065 2.15946 1.6 2.37688 1.6 2.732V4.468C1.6 4.82313 1.60065 5.04054 1.61415 5.20312C1.62043 5.27884 1.62833 5.32459 1.63498 5.35232C1.63814 5.3655 1.64078 5.37361 1.64238 5.37799C1.6439 5.3822 1.64504 5.38439 1.64504 5.38439C1.68298 5.45745 1.74255 5.51702 1.81562 5.55497C1.81562 5.55497 1.81781 5.5561 1.82202 5.55763C1.82639 5.55922 1.8345 5.56187 1.84769 5.56503C1.87542 5.57167 1.92116 5.57957 1.99689 5.58586C2.15946 5.59936 2.37688 5.6 2.732 5.6H4.468C4.82313 5.6 5.04054 5.59936 5.20312 5.58586C5.27884 5.57957 5.32459 5.57167 5.35232 5.56503C5.3655 5.56187 5.37361 5.55922 5.37799 5.55763C5.3822 5.5561 5.38439 5.55497 5.38439 5.55497C5.45745 5.51702 5.51702 5.45745 5.55497 5.38439C5.55497 5.38439 5.5561 5.3822 5.55763 5.37799C5.55922 5.37361 5.56187 5.3655 5.56503 5.35232C5.57167 5.32459 5.57957 5.27884 5.58586 5.20312C5.59936 5.04054 5.6 4.82313 5.6 4.468V2.732C5.6 2.37688 5.59936 2.15946 5.58586 1.99689C5.57957 1.92116 5.57167 1.87542 5.56503 1.84769C5.56187 1.8345 5.55922 1.82639 5.55763 1.82202C5.5561 1.81781 5.55497 1.81562 5.55497 1.81562C5.51702 1.74255 5.45745 1.68298 5.38439 1.64504C5.38439 1.64504 5.3822 1.6439 5.37799 1.64238C5.37361 1.64078 5.3655 1.63814 5.35232 1.63498C5.32459 1.62833 5.27884 1.62043 5.20312 1.61415C5.04054 1.60065 4.82313 1.6 4.468 1.6H2.732C2.37688 1.6 2.15946 1.60065 1.99689 1.61415C1.92116 1.62043 1.87542 1.62833 1.84769 1.63498C1.8345 1.63814 1.82639 1.64078 1.82202 1.64238ZM11.5026 9.12526e-07H13.2974C13.6138 -1.50875e-05 13.8987 -3.113e-05 14.1355 0.0196329C14.3893 0.0407049 14.6587 0.0884169 14.9219 0.225177C15.2872 0.414929 15.585 0.712769 15.7748 1.07806C15.9116 1.34132 15.9593 1.61074 15.9804 1.86447C16 2.10132 16 2.38614 16 2.70266V4.49734C16 4.81386 16 5.09869 15.9804 5.33554C15.9593 5.58926 15.9116 5.85869 15.7748 6.12195C15.585 6.4872 15.2872 6.78504 14.9219 6.9748C14.6587 7.1116 14.3893 7.15928 14.1355 7.1804C13.8987 7.2 13.6139 7.2 13.2974 7.2H11.5026C11.1862 7.2 10.9013 7.2 10.6645 7.1804C10.4107 7.15928 10.1413 7.1116 9.87808 6.9748C9.5128 6.78504 9.21496 6.4872 9.0252 6.12195C8.8884 5.85869 8.84072 5.58926 8.8196 5.33554C8.8 5.0987 8.8 4.81388 8.8 4.49738V2.70263C8.8 2.38612 8.8 2.10131 8.8196 1.86447C8.84072 1.61075 8.8884 1.34132 9.0252 1.07806C9.21496 0.712769 9.5128 0.414929 9.87808 0.225177C10.1413 0.0884169 10.4107 0.0407049 10.6645 0.0196329C10.9013 -3.113e-05 11.1862 -1.50875e-05 11.5026 9.12526e-07ZM10.622 1.64238C10.6178 1.6439 10.6156 1.64504 10.6156 1.64504C10.5426 1.68298 10.483 1.74255 10.445 1.81562C10.445 1.81562 10.4439 1.81781 10.4424 1.82202C10.4408 1.82639 10.4382 1.8345 10.435 1.84769C10.4283 1.87542 10.4204 1.92116 10.4142 1.99689C10.4006 2.15946 10.4 2.37688 10.4 2.732V4.468C10.4 4.82313 10.4006 5.04054 10.4142 5.20312C10.4204 5.27884 10.4283 5.32459 10.435 5.35232C10.4382 5.3655 10.4408 5.37361 10.4424 5.37799C10.4439 5.3822 10.445 5.38439 10.445 5.38439C10.483 5.45745 10.5426 5.51702 10.6156 5.55497C10.6156 5.55497 10.6178 5.5561 10.622 5.55763C10.6264 5.55922 10.6345 5.56187 10.6477 5.56503C10.6754 5.57167 10.7212 5.57957 10.7969 5.58586C10.9594 5.59936 11.1769 5.6 11.532 5.6H13.268C13.6231 5.6 13.8406 5.59936 14.0031 5.58586C14.0789 5.57957 14.1246 5.57167 14.1523 5.56503C14.1655 5.56187 14.1736 5.55922 14.178 5.55763C14.1822 5.5561 14.1844 5.55497 14.1844 5.55497C14.2574 5.51702 14.317 5.45745 14.355 5.38439C14.355 5.38439 14.3561 5.3822 14.3576 5.37799C14.3592 5.37361 14.3618 5.3655 14.365 5.35232C14.3717 5.32458 14.3796 5.27884 14.3858 5.20312C14.3994 5.04054 14.4 4.82313 14.4 4.468V2.732C14.4 2.37688 14.3994 2.15946 14.3858 1.99689C14.3796 1.92116 14.3717 1.87542 14.365 1.84769C14.3618 1.8345 14.3592 1.82639 14.3576 1.82202C14.3561 1.81781 14.355 1.81562 14.355 1.81562C14.317 1.74255 14.2574 1.68298 14.1844 1.64504C14.1844 1.64504 14.1822 1.6439 14.178 1.64238C14.1736 1.64078 14.1655 1.63814 14.1523 1.63498C14.1246 1.62833 14.0789 1.62043 14.0031 1.61415C13.8406 1.60065 13.6231 1.6 13.268 1.6H11.532C11.1769 1.6 10.9594 1.60065 10.7969 1.61415C10.7212 1.62043 10.6754 1.62833 10.6477 1.63498C10.6345 1.63814 10.6264 1.64078 10.622 1.64238ZM2.70263 8.8H4.49738C4.81388 8.8 5.0987 8.8 5.33554 8.8196C5.58926 8.84072 5.85869 8.8884 6.12195 9.0252C6.4872 9.21496 6.78504 9.5128 6.9748 9.87808C7.1116 10.1413 7.15928 10.4107 7.1804 10.6645C7.2 10.9013 7.2 11.1862 7.2 11.5026V13.2974C7.2 13.6139 7.2 13.8987 7.1804 14.1355C7.15928 14.3893 7.1116 14.6587 6.9748 14.9219C6.78504 15.2872 6.4872 15.585 6.12195 15.7748C5.85869 15.9116 5.58926 15.9593 5.33554 15.9804C5.09869 16 4.81386 16 4.49734 16H2.70266C2.38614 16 2.10132 16 1.86447 15.9804C1.61074 15.9593 1.34132 15.9116 1.07806 15.7748C0.712769 15.585 0.414929 15.2872 0.225177 14.9219C0.0884169 14.6587 0.0407049 14.3893 0.0196329 14.1355C-3.113e-05 13.8987 -1.50875e-05 13.6138 9.12526e-07 13.2974V11.5026C-1.50875e-05 11.1862 -3.113e-05 10.9013 0.0196329 10.6645C0.0407049 10.4107 0.0884169 10.1413 0.225177 9.87808C0.414929 9.5128 0.712769 9.21496 1.07806 9.0252C1.34132 8.8884 1.61075 8.84072 1.86447 8.8196C2.10131 8.8 2.38612 8.8 2.70263 8.8ZM1.82202 10.4424C1.81781 10.4439 1.81562 10.445 1.81562 10.445C1.74255 10.483 1.68298 10.5426 1.64504 10.6156C1.64504 10.6156 1.6439 10.6178 1.64238 10.622C1.64078 10.6264 1.63814 10.6345 1.63498 10.6477C1.62833 10.6754 1.62043 10.7212 1.61415 10.7969C1.60065 10.9594 1.6 11.1769 1.6 11.532V13.268C1.6 13.6231 1.60065 13.8406 1.61415 14.0031C1.62043 14.0789 1.62833 14.1246 1.63498 14.1523C1.63814 14.1655 1.64078 14.1736 1.64238 14.178C1.6439 14.1822 1.64504 14.1844 1.64504 14.1844C1.68298 14.2574 1.74255 14.317 1.81562 14.355C1.81562 14.355 1.81781 14.3561 1.82202 14.3576C1.82639 14.3592 1.8345 14.3618 1.84769 14.365C1.87542 14.3717 1.92116 14.3796 1.99689 14.3858C2.15946 14.3994 2.37688 14.4 2.732 14.4H4.468C4.82313 14.4 5.04054 14.3994 5.20312 14.3858C5.27884 14.3796 5.32458 14.3717 5.35232 14.365C5.3655 14.3618 5.37361 14.3592 5.37799 14.3576C5.3822 14.3561 5.38439 14.355 5.38439 14.355C5.45745 14.317 5.51702 14.2574 5.55497 14.1844C5.55497 14.1844 5.5561 14.1822 5.55763 14.178C5.55922 14.1736 5.56187 14.1655 5.56503 14.1523C5.57167 14.1246 5.57957 14.0789 5.58586 14.0031C5.59936 13.8406 5.6 13.6231 5.6 13.268V11.532C5.6 11.1769 5.59936 10.9594 5.58586 10.7969C5.57957 10.7212 5.57167 10.6754 5.56503 10.6477C5.56187 10.6345 5.55922 10.6264 5.55763 10.622C5.5561 10.6178 5.55497 10.6156 5.55497 10.6156C5.51702 10.5426 5.45745 10.483 5.38439 10.445L5.38289 10.4443C5.38289 10.4443 5.38029 10.4432 5.37799 10.4424C5.37361 10.4408 5.3655 10.4382 5.35232 10.435C5.32459 10.4283 5.27884 10.4204 5.20312 10.4142C5.04054 10.4006 4.82313 10.4 4.468 10.4H2.732C2.37688 10.4 2.15946 10.4006 1.99689 10.4142C1.92116 10.4204 1.87542 10.4283 1.84769 10.435C1.8345 10.4382 1.82639 10.4408 1.82202 10.4424ZM11.5026 8.8H13.2974C13.6139 8.8 13.8987 8.8 14.1355 8.8196C14.3893 8.84072 14.6587 8.8884 14.9219 9.0252C15.2872 9.21496 15.585 9.5128 15.7748 9.87808C15.9116 10.1413 15.9593 10.4107 15.9804 10.6645C16 10.9013 16 11.1862 16 11.5026V13.2974C16 13.6138 16 13.8987 15.9804 14.1355C15.9593 14.3893 15.9116 14.6587 15.7748 14.9219C15.585 15.2872 15.2872 15.585 14.9219 15.7748C14.6587 15.9116 14.3893 15.9593 14.1355 15.9804C13.8987 16 13.6138 16 13.2974 16H11.5026C11.1862 16 10.9013 16 10.6645 15.9804C10.4107 15.9593 10.1413 15.9116 9.87808 15.7748C9.5128 15.585 9.21496 15.2872 9.0252 14.9219C8.8884 14.6587 8.84072 14.3893 8.8196 14.1355C8.8 13.8987 8.8 13.6139 8.8 13.2974V11.5026C8.8 11.1862 8.8 10.9013 8.8196 10.6645C8.84072 10.4107 8.8884 10.1413 9.0252 9.87808C9.21496 9.5128 9.5128 9.21496 9.87808 9.0252C10.1413 8.8884 10.4107 8.84072 10.6645 8.8196C10.9013 8.8 11.1862 8.8 11.5026 8.8ZM10.622 10.4424C10.6178 10.4439 10.6156 10.445 10.6156 10.445C10.5426 10.483 10.483 10.5426 10.445 10.6156C10.445 10.6156 10.4439 10.6178 10.4424 10.622C10.4408 10.6264 10.4382 10.6345 10.435 10.6477C10.4283 10.6754 10.4204 10.7212 10.4142 10.7969C10.4006 10.9594 10.4 11.1769 10.4 11.532V13.268C10.4 13.6231 10.4006 13.8406 10.4142 14.0031C10.4204 14.0789 10.4283 14.1246 10.435 14.1523C10.4382 14.1655 10.4408 14.1736 10.4424 14.178C10.4439 14.1822 10.445 14.1844 10.445 14.1844C10.483 14.2574 10.5426 14.317 10.6156 14.355C10.6156 14.355 10.6178 14.3561 10.622 14.3576C10.6264 14.3592 10.6345 14.3618 10.6477 14.365C10.6754 14.3717 10.7212 14.3796 10.7969 14.3858C10.9594 14.3994 11.1769 14.4 11.532 14.4H13.268C13.6231 14.4 13.8406 14.3994 14.0031 14.3858C14.0789 14.3796 14.1246 14.3717 14.1523 14.365C14.1655 14.3618 14.1736 14.3592 14.178 14.3576C14.1822 14.3561 14.1844 14.355 14.1844 14.355C14.2574 14.317 14.317 14.2574 14.355 14.1844C14.355 14.1844 14.3561 14.1822 14.3576 14.178C14.3592 14.1736 14.3618 14.1655 14.365 14.1523C14.3717 14.1246 14.3796 14.0789 14.3858 14.0031C14.3994 13.8406 14.4 13.6231 14.4 13.268V11.532C14.4 11.1769 14.3994 10.9594 14.3858 10.7969C14.3796 10.7212 14.3717 10.6754 14.365 10.6477C14.3618 10.6345 14.3592 10.6264 14.3576 10.622C14.357 10.6205 14.3562 10.6183 14.3562 10.6183C14.3555 10.6167 14.355 10.6156 14.355 10.6156C14.317 10.5426 14.2574 10.483 14.1844 10.445C14.1844 10.445 14.1822 10.4439 14.178 10.4424C14.1736 10.4408 14.1655 10.4382 14.1523 10.435C14.1246 10.4283 14.0789 10.4204 14.0031 10.4142C13.8406 10.4006 13.6231 10.4 13.268 10.4H11.532C11.1769 10.4 10.9594 10.4006 10.7969 10.4142C10.7212 10.4204 10.6754 10.4283 10.6477 10.435C10.6345 10.4382 10.6264 10.4408 10.622 10.4424Z" fill="#635EF8"/>
</svg>
