<svg width="8" height="8" viewBox="0 0 8 8" fill="none" xmlns="http://www.w3.org/2000/svg">
<path d="M0.221378 0.221373C-0.0737928 0.516544 -0.0737928 0.9951 0.221378 1.29027L2.93111 3.99998L0.221378 6.70976C-0.0737928 7.0049 -0.0737928 7.48349 0.221378 7.77864C0.516542 8.07379 0.995105 8.07379 1.29027 7.77864L3.99999 5.06887L6.70976 7.77864C7.00491 8.07379 7.4835 8.07379 7.77865 7.77864C8.07379 7.48349 8.07379 7.0049 7.77865 6.70976L5.06887 3.99998L7.77865 1.29028C8.07379 0.995115 8.07379 0.516551 7.77865 0.221388C7.48342 -0.0737833 7.00491 -0.0737833 6.70976 0.221388L3.99999 2.9311L1.29027 0.221373C0.995105 -0.0737909 0.516542 -0.0737909 0.221378 0.221373Z" fill="white"/>
</svg>
