<svg width="18" height="18" viewBox="0 0 18 18" fill="none" xmlns="http://www.w3.org/2000/svg">
<g clip-path="url(#clip0_434_2)">
<path d="M9 18C13.9705 18 18 13.9705 18 9C18 4.02943 13.9705 0 9 0C4.02943 0 0 4.02943 0 9C0 10.4397 0.338058 11.8004 0.939114 13.0072C1.09885 13.3279 1.15201 13.6945 1.05941 14.0405L0.523359 16.044C0.290655 16.9137 1.08631 17.7093 1.95601 17.4767L3.95945 16.9406C4.30554 16.848 4.67209 16.9012 4.99278 17.0608C6.19953 17.662 7.56027 18 9 18Z" fill="white"/>
<path d="M11.6406 9.00006C11.6406 9.48633 12.0348 9.8805 12.5211 9.8805C13.0073 9.8805 13.4015 9.48633 13.4015 9.00006C13.4015 8.5138 13.0073 8.11963 12.5211 8.11963C12.0348 8.11963 11.6406 8.5138 11.6406 9.00006Z" fill="#9AA1A6"/>
<path d="M8.11719 9.00006C8.11719 9.48633 8.51136 9.8805 8.99762 9.8805C9.48389 9.8805 9.87806 9.48633 9.87806 9.00006C9.87806 8.5138 9.48389 8.11963 8.99762 8.11963C8.51136 8.11963 8.11719 8.5138 8.11719 9.00006Z" fill="#9AA1A6"/>
<path d="M4.59766 8.99994C4.59766 9.48621 4.99184 9.88038 5.47809 9.88038C5.96434 9.88038 6.35853 9.48621 6.35853 8.99994C6.35853 8.51368 5.96434 8.11951 5.47809 8.11951C4.99184 8.11951 4.59766 8.51368 4.59766 8.99994Z" fill="#9AA1A6"/>
</g>
<defs>
<clipPath id="clip0_434_2">
<rect width="18" height="18" fill="white"/>
</clipPath>
</defs>
</svg>
