<svg width="18" height="18" viewBox="0 0 18 18" fill="none" xmlns="http://www.w3.org/2000/svg">
<g clip-path="url(#clip0_51_618)">
<path d="M9 18C13.9705 18 18 13.9705 18 9C18 4.02943 13.9705 0 9 0C4.02943 0 0 4.02943 0 9C0 10.4397 0.338058 11.8004 0.939114 13.0072C1.09885 13.3279 1.15201 13.6945 1.05941 14.0405L0.523359 16.044C0.290655 16.9137 1.08631 17.7093 1.95601 17.4767L3.95945 16.9406C4.30554 16.848 4.67209 16.9012 4.99278 17.0608C6.19953 17.662 7.56027 18 9 18Z" fill="white"/>
<path d="M11.6406 9C11.6406 9.48627 12.0348 9.88044 12.5211 9.88044C13.0073 9.88044 13.4015 9.48627 13.4015 9C13.4015 8.51374 13.0073 8.11957 12.5211 8.11957C12.0348 8.11957 11.6406 8.51374 11.6406 9Z" fill="#635EF8"/>
<path d="M8.11914 9C8.11914 9.48627 8.51331 9.88044 8.99958 9.88044C9.48584 9.88044 9.88001 9.48627 9.88001 9C9.88001 8.51374 9.48584 8.11957 8.99958 8.11957C8.51331 8.11957 8.11914 8.51374 8.11914 9Z" fill="#635EF8"/>
<path d="M4.59766 9C4.59766 9.48627 4.99184 9.88044 5.47809 9.88044C5.96434 9.88044 6.35853 9.48627 6.35853 9C6.35853 8.51374 5.96434 8.11957 5.47809 8.11957C4.99184 8.11957 4.59766 8.51374 4.59766 9Z" fill="#635EF8"/>
</g>
<defs>
<clipPath id="clip0_51_618">
<rect width="18" height="18" fill="white"/>
</clipPath>
</defs>
</svg>
