<svg width="18" height="18" viewBox="0 0 18 18" fill="none" xmlns="http://www.w3.org/2000/svg">
<path d="M18 16.8571V7.14286C18 6.96543 17.9593 6.79045 17.8812 6.63176C17.8031 6.47306 17.6897 6.33503 17.55 6.22857L9.675 0.228571C9.48027 0.0802031 9.24342 0 9 0C8.75658 0 8.51973 0.0802031 8.325 0.228571L0.45 6.22857C0.31028 6.33503 0.196875 6.47306 0.118769 6.63176C0.0406631 6.79045 0 6.96543 0 7.14286V16.8571C0 17.1602 0.118527 17.4509 0.329505 17.6653C0.540484 17.8796 0.826631 18 1.125 18H5.625C5.92337 18 6.20952 17.8796 6.4205 17.6653C6.63147 17.4509 6.75 17.1602 6.75 16.8571V13.4286C6.75 13.1255 6.86853 12.8348 7.0795 12.6205C7.29048 12.4061 7.57663 12.2857 7.875 12.2857H10.125C10.4234 12.2857 10.7095 12.4061 10.9205 12.6205C11.1315 12.8348 11.25 13.1255 11.25 13.4286V16.8571C11.25 17.1602 11.3685 17.4509 11.5795 17.6653C11.7905 17.8796 12.0766 18 12.375 18H16.875C17.1734 18 17.4595 17.8796 17.6705 17.6653C17.8815 17.4509 18 17.1602 18 16.8571Z" fill="white"/>
</svg>
