<svg width="18" height="18" viewBox="0 0 18 18" fill="none" xmlns="http://www.w3.org/2000/svg">
<g clip-path="url(#clip0_51_625)">
<path d="M9 0C4.02994 0 0 4.02955 0 8.99961C0 13.9701 4.02994 18 9 18C13.9701 18 18 13.9701 18 8.99961C18 4.02955 13.9704 0 9 0ZM10.3758 13.9139C10.3758 14.6686 9.75782 15.2802 9.00393 15.2802C8.24964 15.2802 7.63207 14.6686 7.63207 13.9139V7.93614C7.63207 7.18185 8.24964 6.57017 9.00393 6.57017C9.75782 6.57017 10.3758 7.18146 10.3758 7.93614V13.9139ZM9 5.44149C8.16753 5.44149 7.4926 4.76655 7.4926 3.93448C7.4926 3.10162 8.16753 2.42747 9 2.42747C9.83207 2.42747 10.5074 3.10162 10.5074 3.93448C10.5074 4.76655 9.83207 5.44149 9 5.44149Z" fill="white"/>
</g>
<defs>
<clipPath id="clip0_51_625">
<rect width="18" height="18" fill="white"/>
</clipPath>
</defs>
</svg>
