<svg width="44" height="36" viewBox="0 0 44 36" fill="none" xmlns="http://www.w3.org/2000/svg">
<rect width="44" height="36" rx="18" fill="#8480FF"/>
<path d="M12.9102 17.9991H25.6374M25.6374 17.9991L22.4556 15.2719M25.6374 17.9991L22.4556 20.7264" stroke="white" stroke-width="2" stroke-linecap="round" stroke-linejoin="round"/>
<path d="M19.2734 13.4546C19.2844 11.4773 19.3721 10.4064 20.0707 9.70792C20.8695 8.90912 22.1551 8.90912 24.7264 8.90912H25.6355C28.2068 8.90912 29.4925 8.90912 30.2912 9.70792C31.09 10.5067 31.09 11.7924 31.09 14.3637V21.6364C31.09 24.2077 31.09 25.4933 30.2912 26.2921C29.4925 27.0909 28.2068 27.0909 25.6355 27.0909H24.7264C22.1551 27.0909 20.8695 27.0909 20.0707 26.2921C19.3721 25.5936 19.2844 24.5228 19.2734 22.5455" stroke="white" stroke-width="2" stroke-linecap="round"/>
</svg>
