<svg width="43" height="36" viewBox="0 0 43 36" fill="none" xmlns="http://www.w3.org/2000/svg">
<rect width="43" height="36" rx="18" fill="#8480FF"/>
<path d="M21.5 8C18.5898 8 16.2222 10.3611 16.2222 13.2632C16.2222 16.1653 18.5898 18.5263 21.5 18.5263C24.4102 18.5263 26.7778 16.1653 26.7778 13.2632C26.7778 10.3611 24.4102 8 21.5 8ZM21.5 16.4211C19.7541 16.4211 18.3333 15.0042 18.3333 13.2632C18.3333 11.5221 19.7541 10.1053 21.5 10.1053C23.2459 10.1053 24.6667 11.5221 24.6667 13.2632C24.6667 15.0042 23.2459 16.4211 21.5 16.4211ZM31 28V26.9474C31 22.8853 27.6845 19.5789 23.6111 19.5789H19.3889C15.3144 19.5789 12 22.8853 12 26.9474V28H14.1111V26.9474C14.1111 24.0453 16.4787 21.6842 19.3889 21.6842H23.6111C26.5213 21.6842 28.8889 24.0453 28.8889 26.9474V28H31Z" fill="white"/>
</svg>
