<svg width="15" height="18" viewBox="0 0 15 18" fill="none" xmlns="http://www.w3.org/2000/svg">
<path d="M2.06686 7.23269C2.06686 5.6279 3.38008 4.32707 5.00014 4.32707C6.62021 4.32707 7.93343 5.6279 7.93343 7.23269C7.93343 8.83745 6.62021 10.1383 5.00014 10.1383C3.38008 10.1383 2.06686 8.83748 2.06686 7.23269ZM6.24479 10.3364H3.75566C1.68483 10.3364 0 12.0054 0 14.0564V17.0725L0.00779848 17.1195L0.217961 17.1845C2.19388 17.7959 3.91113 18 5.32434 18C8.08457 18 9.68422 17.2203 9.78328 17.1708L9.97957 17.0721L10.0003 17.0723V14.0564C10.0003 12.0054 8.31545 10.3364 6.24479 10.3364ZM10.0003 5.81114C11.6202 5.81114 12.9335 4.51031 12.9335 2.90552C12.9335 1.30083 11.6203 0 10.0003 0C8.38032 0 7.06697 1.30083 7.06697 2.90552C7.067 4.51031 8.38032 5.81114 10.0003 5.81114ZM11.2448 6.00924H8.7557C8.69632 6.00924 8.6385 6.01543 8.57991 6.01824C8.80494 6.48616 8.9348 7.00759 8.9348 7.55976C8.9348 8.5787 8.50334 9.4977 7.81387 10.1532C9.4272 10.6286 10.6604 11.9858 10.9411 13.6582C13.3203 13.5553 14.6918 12.8893 14.783 12.8436L14.9793 12.745L15 12.7453V9.72945C15.0004 7.67828 13.3156 6.00924 11.2448 6.00924Z" fill="white"/>
</svg>
