<svg width="20" height="20" viewBox="0 0 20 20" fill="none" xmlns="http://www.w3.org/2000/svg">
<path d="M8.50763 2.15368H4.49249C3.30898 2.15368 2.71721 2.15368 2.26517 2.38169C1.86754 2.58225 1.54425 2.90227 1.34166 3.29588C1.11133 3.74337 1.11133 4.32916 1.11133 5.50073V15.5419C1.11133 16.7134 1.11133 17.2993 1.34166 17.7467C1.54425 18.1403 1.86754 18.4604 2.26517 18.6609C2.71721 18.8889 3.30898 18.8889 4.49249 18.8889H14.636C15.8195 18.8889 16.4113 18.8889 16.8633 18.6609C17.2609 18.4604 17.5843 18.1403 17.7868 17.7467C18.0172 17.2993 18.0172 16.7134 18.0172 15.5419V11.0443M13.2624 3.72261L16.2509 6.68101M8.2569 8.67759L15.2816 1.72382C16.1068 0.90688 17.4449 0.90688 18.2701 1.72382C19.0954 2.54076 19.0954 3.86528 18.2701 4.68222L11.0196 11.8595C10.2149 12.6562 9.81255 13.0545 9.35419 13.3712C8.94739 13.6524 8.50858 13.8853 8.04695 14.0652C7.52677 14.2679 6.96897 14.3793 5.85334 14.6022L5.33779 14.7051L5.38792 14.3576C5.56534 13.1283 5.65405 12.5136 5.85583 11.9397C6.03489 11.4304 6.27949 10.9463 6.5836 10.4989C6.92631 9.99476 7.36986 9.55567 8.2569 8.67759Z" stroke="#647179" stroke-width="1.5" stroke-linecap="round" stroke-linejoin="round"/>
</svg>
