<svg width="20" height="14" viewBox="0 0 20 14" fill="none" xmlns="http://www.w3.org/2000/svg">
<path d="M6.55924 6.15008C8.10751 6.15008 9.36263 4.96922 9.36263 3.51254C9.36263 2.05587 8.10751 0.875 6.55924 0.875C5.01098 0.875 3.75586 2.05587 3.75586 3.51254C3.75586 4.96922 5.01098 6.15008 6.55924 6.15008Z" stroke="#647179" stroke-width="1.5"/>
<path d="M12.2208 13.125C12.2208 12.4237 12.0739 11.7292 11.7885 11.0813C11.5032 10.4334 11.0849 9.84475 10.5576 9.34899C10.0303 8.85324 9.40441 8.4601 8.71558 8.19203C8.02675 7.92396 7.28853 7.78622 6.5431 7.78668C5.03827 7.78668 3.59508 8.34911 2.53101 9.35024C1.46693 10.3514 0.869141 11.7092 0.869141 13.125H12.2208Z" stroke="#647179" stroke-width="1.5"/>
<path d="M14.5103 7.27041C15.7576 7.27041 16.7687 6.31911 16.7687 5.14563C16.7687 3.97214 15.7576 3.02084 14.5103 3.02084C13.2631 3.02084 12.252 3.97214 12.252 5.14563C12.252 6.31911 13.2631 7.27041 14.5103 7.27041Z" stroke="#647179" stroke-width="1.5"/>
<path d="M13.8639 13.125H19.0899C19.0899 12.5596 18.9714 11.9998 18.741 11.4775C18.5107 10.9553 18.1732 10.4809 17.7477 10.0816C17.3223 9.6823 16.8172 9.36588 16.2616 9.15047C15.706 8.93506 15.1106 8.82489 14.5097 8.82628C13.7612 8.82534 13.0241 8.99783 12.3633 9.3285" stroke="#647179" stroke-width="1.5"/>
</svg>
