<svg width="44" height="34" viewBox="0 0 44 34" fill="none" xmlns="http://www.w3.org/2000/svg">
<rect width="44" height="34" rx="17" fill="#8480FF"/>
<path fill-rule="evenodd" clip-rule="evenodd" d="M32 9.28571C32 9.62671 31.8829 9.95373 31.6746 10.1949C31.4662 10.436 31.1836 10.5714 30.8889 10.5714H13.1111C12.8164 10.5714 12.5338 10.436 12.3254 10.1949C12.1171 9.95373 12 9.62671 12 9.28571C12 8.94472 12.1171 8.6177 12.3254 8.37658C12.5338 8.13546 12.8164 8 13.1111 8H30.8889C31.1836 8 31.4662 8.13546 31.6746 8.37658C31.8829 8.6177 32 8.94472 32 9.28571ZM32 17C32 17.341 31.8829 17.668 31.6746 17.9091C31.4662 18.1503 31.1836 18.2857 30.8889 18.2857H13.1111C12.8164 18.2857 12.5338 18.1503 12.3254 17.9091C12.1171 17.668 12 17.341 12 17C12 16.659 12.1171 16.332 12.3254 16.0909C12.5338 15.8497 12.8164 15.7143 13.1111 15.7143H30.8889C31.1836 15.7143 31.4662 15.8497 31.6746 16.0909C31.8829 16.332 32 16.659 32 17ZM30.8889 26C31.1836 26 31.4662 25.8645 31.6746 25.6234C31.8829 25.3823 32 25.0553 32 24.7143C32 24.3733 31.8829 24.0463 31.6746 23.8051C31.4662 23.564 31.1836 23.4286 30.8889 23.4286H13.1111C12.8164 23.4286 12.5338 23.564 12.3254 23.8051C12.1171 24.0463 12 24.3733 12 24.7143C12 25.0553 12.1171 25.3823 12.3254 25.6234C12.5338 25.8645 12.8164 26 13.1111 26H30.8889Z" fill="white"/>
</svg>
