<svg width="20" height="17" viewBox="0 0 20 17" fill="none" xmlns="http://www.w3.org/2000/svg">
<path fill-rule="evenodd" clip-rule="evenodd" d="M8.08705 4.40209e-07H11.9129C13.6225 -1.89884e-05 14.9766 -2.86468e-05 16.0363 0.148765C17.1269 0.301882 18.0097 0.624513 18.7059 1.35149C19.402 2.07848 19.7109 3.00032 19.8576 4.13924C20 5.2459 20 6.65992 20 8.44521V8.55479C20 10.3401 20 11.7541 19.8576 12.8607C19.7109 13.9996 19.402 14.9215 18.7059 15.6485C18.0097 16.3755 17.1269 16.6981 16.0363 16.8513C14.9766 17 13.6225 17 11.9129 17H8.08706C6.37752 17 5.02343 17 3.9637 16.8513C2.87308 16.6981 1.99034 16.3755 1.29418 15.6485C0.598028 14.9215 0.289079 13.9996 0.142456 12.8607C-2.75429e-05 11.7541 -1.81831e-05 10.3401 4.21583e-07 8.55479V8.44521C-1.81831e-05 6.65992 -2.75429e-05 5.2459 0.142456 4.13924C0.289079 3.00032 0.598028 2.07848 1.29418 1.35149C1.99034 0.624513 2.87308 0.301882 3.9637 0.148765C5.02343 -2.86468e-05 6.37751 -1.89884e-05 8.08705 4.40209e-07ZM4.14963 1.59291C3.21373 1.72431 2.67452 1.97073 2.28084 2.38185C1.88715 2.79296 1.65118 3.35605 1.52536 4.3334C1.39683 5.3317 1.39535 6.64768 1.39535 8.5C1.39535 10.3523 1.39683 11.6683 1.52536 12.6667C1.65118 13.6439 1.88715 14.207 2.28084 14.6182C2.67452 15.0293 3.21373 15.2757 4.14963 15.4071C5.10559 15.5413 6.36575 15.5429 8.13953 15.5429H11.8605C13.6342 15.5429 14.8944 15.5413 15.8504 15.4071C16.7862 15.2757 17.3255 15.0293 17.7192 14.6182C18.1128 14.207 18.3488 13.6439 18.4746 12.6667C18.6032 11.6683 18.6047 10.3523 18.6047 8.5C18.6047 6.64768 18.6032 5.3317 18.4746 4.3334C18.3488 3.35605 18.1128 2.79296 17.7192 2.38185C17.3255 1.97073 16.7862 1.72431 15.8504 1.59291C14.8944 1.45869 13.6342 1.45714 11.8605 1.45714H8.13953C6.36575 1.45714 5.10559 1.45869 4.14963 1.59291ZM3.88263 4.14786C4.12931 3.83875 4.56924 3.79698 4.86525 4.05458L6.87352 5.80226C7.74139 6.55753 8.34391 7.08016 8.85265 7.42181C9.34502 7.75258 9.67898 7.86362 10 7.86362C10.321 7.86362 10.655 7.75258 11.1473 7.42181C11.6561 7.08016 12.2586 6.55753 13.1265 5.80226L15.1348 4.05458C15.4308 3.79698 15.8707 3.83875 16.1174 4.14786C16.364 4.45698 16.324 4.91639 16.028 5.17399L13.9847 6.95213C13.1603 7.66962 12.492 8.25122 11.9021 8.64737C11.2877 9.06003 10.6894 9.32076 10 9.32076C9.31061 9.32076 8.71228 9.06003 8.09784 8.64737C7.50802 8.25122 6.83974 7.66962 6.01522 6.95213L3.97196 5.17399C3.67595 4.91639 3.63596 4.45698 3.88263 4.14786Z" fill="#647179"/>
</svg>
