<svg width="20" height="20" viewBox="0 0 20 20" fill="none" xmlns="http://www.w3.org/2000/svg">
<g clip-path="url(#clip0_51_493)">
<path d="M10 0C4.48889 0 0 4.48889 0 10C0 15.5111 4.48889 20 10 20C15.5111 20 20 15.5111 20 10C20 4.48889 15.5111 0 10 0ZM10 18.3333C5.4 18.3333 1.66667 14.6 1.66667 10C1.66667 5.4 5.4 1.66667 10 1.66667C14.6 1.66667 18.3333 5.4 18.3333 10C18.3333 14.6 14.6 18.3333 10 18.3333ZM12.5556 5.22222C13.2333 5.9 13.6111 6.81111 13.6111 7.77778C13.6111 8.74444 13.2333 9.64445 12.5556 10.3333C12.0778 10.8111 11.4778 11.1444 10.8333 11.2889V11.6667C10.8333 12.1222 10.4556 12.5 10 12.5C9.54445 12.5 9.16667 12.1222 9.16667 11.6667V10.5556C9.16667 10.1 9.54445 9.72222 10 9.72222C10.5222 9.72222 11.0111 9.52222 11.3778 9.15556C11.7444 8.78889 11.9444 8.3 11.9444 7.77778C11.9444 7.25556 11.7444 6.76667 11.3778 6.4C10.6444 5.66667 9.36667 5.66667 8.63333 6.4C8.26667 6.76667 8.06667 7.25556 8.06667 7.77778C8.06667 8.23333 7.68889 8.61111 7.23333 8.61111C6.77778 8.61111 6.4 8.23333 6.4 7.77778C6.4 6.81111 6.77778 5.91111 7.45556 5.22222C8.82222 3.85556 11.2 3.85556 12.5667 5.22222H12.5556ZM11.1111 14.7222C11.1111 15.3333 10.6111 15.8333 10 15.8333C9.38889 15.8333 8.88889 15.3333 8.88889 14.7222C8.88889 14.1111 9.38889 13.6111 10 13.6111C10.6111 13.6111 11.1111 14.1111 11.1111 14.7222Z" fill="#647179"/>
</g>
<defs>
<clipPath id="clip0_51_493">
<rect width="20" height="20" fill="white"/>
</clipPath>
</defs>
</svg>
