<svg width="20" height="20" viewBox="0 0 20 20" fill="none" xmlns="http://www.w3.org/2000/svg">
<g clip-path="url(#clip0_90_1024)">
<path d="M13.3746 12.3714C16.5739 12.3714 19.1673 9.78847 19.1673 6.60236C19.1673 3.41624 16.5739 0.833374 13.3746 0.833374C10.1755 0.833374 7.58203 3.41624 7.58203 6.60236C7.58203 8.07814 8.25559 9.15148 8.25559 9.15148L1.25053 16.1279C0.936193 16.4409 0.496129 17.2548 1.25053 18.0061L2.0588 18.8111C2.37311 19.0794 3.16341 19.4551 3.81003 18.8111L4.75302 17.872C5.69601 18.8111 6.77371 18.2745 7.17785 17.7378C7.85142 16.7987 7.04314 15.8596 7.04314 15.8596L7.31256 15.5912C8.60576 16.8792 9.73738 16.1279 10.1415 15.5912C10.8151 14.6521 10.1415 13.713 10.1415 13.713C9.87213 13.1763 9.33332 13.1763 10.0068 12.5056L10.8151 11.7005C11.4617 12.2372 12.7909 12.3714 13.3746 12.3714Z" stroke="#647179" stroke-width="1.5" stroke-linejoin="round"/>
<path d="M15.3968 6.60241C15.3968 7.71385 14.4921 8.61483 13.3762 8.61483C12.2601 8.61483 11.3555 7.71385 11.3555 6.60241C11.3555 5.49097 12.2601 4.58997 13.3762 4.58997C14.4921 4.58997 15.3968 5.49097 15.3968 6.60241Z" stroke="#647179" stroke-width="1.5"/>
</g>
<defs>
<clipPath id="clip0_90_1024">
<rect width="20" height="20" fill="white"/>
</clipPath>
</defs>
</svg>
