<svg width="20" height="20" viewBox="0 0 20 20" fill="none" xmlns="http://www.w3.org/2000/svg">
<path d="M13.6367 9.99906L0.909427 9.99906M0.909427 9.99906L4.09124 12.7263M0.909427 9.99906L4.09124 7.27179" stroke="#647179" stroke-width="1.5" stroke-linecap="round" stroke-linejoin="round"/>
<path d="M7.27344 5.45463C7.28445 3.47733 7.37213 2.40651 8.07066 1.70798C8.86948 0.90918 10.1551 0.90918 12.7264 0.90918H13.6355C16.2068 0.90918 17.4925 0.90918 18.2912 1.70798C19.09 2.50678 19.09 3.79243 19.09 6.36372V13.6365C19.09 16.2077 19.09 17.4934 18.2912 18.2922C17.4925 19.091 16.2068 19.091 13.6355 19.091H12.7264C10.1551 19.091 8.86948 19.091 8.07066 18.2922C7.37213 17.5936 7.28445 16.5228 7.27344 14.5455" stroke="#647179" stroke-width="1.5" stroke-linecap="round"/>
</svg>
