<svg width="20" height="22" viewBox="0 0 20 22" fill="none" xmlns="http://www.w3.org/2000/svg">
<g clip-path="url(#clip0_57_479)">
<path d="M1.92773 10.498V4.68737C1.92773 4.02284 1.92773 3.69058 1.9837 3.41381C2.23007 2.19544 3.2515 1.24242 4.55731 1.01254C4.85394 0.960327 5.21005 0.960327 5.92227 0.960327C6.23432 0.960327 6.39035 0.960327 6.5403 0.973409C7.18679 1.02981 7.80002 1.26682 8.29994 1.65346C8.41585 1.74313 8.52621 1.84607 8.74683 2.05195L9.19089 2.46628C9.84922 3.08054 10.1784 3.38767 10.5726 3.5923C10.7892 3.7047 11.0188 3.79348 11.2572 3.85686C11.6909 3.97223 12.1565 3.97223 13.0875 3.97223H13.3891C15.5135 3.97223 16.5756 3.97223 17.266 4.55162C17.3296 4.60491 17.39 4.66131 17.4471 4.72056C18.0681 5.36475 18.0681 6.3558 18.0681 8.33792V10.498" stroke="#647179" stroke-width="1.5"/>
<path d="M7.98047 16.0198H12.0156" stroke="#647179" stroke-width="1.5" stroke-linecap="round"/>
<path d="M1.4028 16.5056C0.92145 13.7787 0.680778 12.4152 1.26393 11.4347C1.41274 11.1845 1.59626 10.958 1.80867 10.7624C2.64102 9.99597 3.98642 9.99597 6.67722 9.99597H13.3244C16.0152 9.99597 17.3606 9.99597 18.193 10.7624C18.4054 10.958 18.5889 11.1845 18.7377 11.4347C19.3209 12.4152 19.0802 13.7787 18.5989 16.5056C18.2524 18.4686 18.0791 19.45 17.4787 20.1014C17.323 20.2704 17.1488 20.4202 16.9595 20.5478C16.23 21.0396 15.2615 21.0396 13.3244 21.0396H6.67723C4.74018 21.0396 3.77165 21.0396 3.04214 20.5478C2.85286 20.4202 2.6786 20.2704 2.52286 20.1014C1.92256 19.45 1.74931 18.4686 1.4028 16.5056Z" stroke="#647179" stroke-width="1.5"/>
</g>
<defs>
<clipPath id="clip0_57_479">
<rect width="20" height="22" fill="white"/>
</clipPath>
</defs>
</svg>
